<svg width="100" height="73" viewBox="0 0 100 73" fill="none" xmlns="http://www.w3.org/2000/svg">
<path d="M23.1818 72.0455C18.7273 72.0455 14.7576 71.2727 11.2727 69.7273C7.78788 68.1515 5.0303 65.8333 3 62.7727C1 59.6818 0 55.8333 0 51.2273C0 47.3485 0.712121 44.0909 2.13636 41.4545C3.56061 38.8182 5.5 36.697 7.95455 35.0909C10.4091 33.4848 13.197 32.2727 16.3182 31.4545C19.4697 30.6364 22.7727 30.0606 26.2273 29.7273C30.2879 29.303 33.5606 28.9091 36.0455 28.5454C38.5303 28.1515 40.3333 27.5758 41.4545 26.8182C42.5758 26.0606 43.1364 24.9394 43.1364 23.4545V23.1818C43.1364 20.303 42.2273 18.0758 40.4091 16.5C38.6212 14.9242 36.0758 14.1364 32.7727 14.1364C29.2879 14.1364 26.5152 14.9091 24.4545 16.4545C22.3939 17.9697 21.0303 19.8788 20.3636 22.1818L2.45455 20.7273C3.36364 16.4848 5.15152 12.8182 7.81818 9.72727C10.4848 6.60606 13.9242 4.21211 18.1364 2.54545C22.3788 0.848483 27.2879 0 32.8636 0C36.7424 0 40.4545 0.454544 44 1.36363C47.5758 2.27273 50.7424 3.68182 53.5 5.5909C56.2879 7.5 58.4849 9.95454 60.0909 12.9545C61.697 15.9242 62.5 19.4848 62.5 23.6364V70.7273H44.1364V61.0455H43.5909C42.4697 63.2273 40.9697 65.1515 39.0909 66.8182C37.2121 68.4545 34.9545 69.7424 32.3182 70.6818C29.6818 71.5909 26.6364 72.0455 23.1818 72.0455ZM28.7273 58.6818C31.5758 58.6818 34.0909 58.1212 36.2727 57C38.4545 55.8485 40.1667 54.303 41.4091 52.3636C42.6515 50.4242 43.2727 48.2273 43.2727 45.7727V38.3636C42.6667 38.7576 41.8333 39.1212 40.7727 39.4545C39.7424 39.7576 38.5758 40.0455 37.2727 40.3182C35.9697 40.5606 34.6667 40.7879 33.3636 41C32.0606 41.1818 30.8788 41.3485 29.8182 41.5C27.5455 41.8333 25.5606 42.3636 23.8636 43.0909C22.1667 43.8182 20.8485 44.803 19.9091 46.0455C18.9697 47.2576 18.5 48.7727 18.5 50.5909C18.5 53.2273 19.4545 55.2424 21.3636 56.6364C23.303 58 25.7576 58.6818 28.7273 58.6818Z" fill="url(#paint0_linear_23_2)"/>
<path d="M88.8409 71.9091C85.8409 71.9091 83.2652 70.8485 81.1136 68.7273C78.9924 66.5758 77.9318 64 77.9318 61C77.9318 58.0303 78.9924 55.4849 81.1136 53.3636C83.2652 51.2424 85.8409 50.1818 88.8409 50.1818C91.75 50.1818 94.2955 51.2424 96.4773 53.3636C98.6591 55.4849 99.75 58.0303 99.75 61C99.75 63 99.2348 64.8333 98.2045 66.5C97.2045 68.1364 95.8864 69.4545 94.25 70.4545C92.6136 71.4242 90.8106 71.9091 88.8409 71.9091Z" fill="url(#paint1_linear_23_2)"/>
<defs>
<linearGradient id="paint0_linear_23_2" x1="-47" y1="36" x2="113.5" y2="36" gradientUnits="userSpaceOnUse">
<stop stop-color="#D946EF"/>
<stop offset="1" stop-color="#EC4899"/>
</linearGradient>
<linearGradient id="paint1_linear_23_2" x1="-47" y1="36" x2="113.5" y2="36" gradientUnits="userSpaceOnUse">
<stop stop-color="#D946EF"/>
<stop offset="1" stop-color="#EC4899"/>
</linearGradient>
</defs>
</svg>
