<svg width="297" height="300" viewBox="0 0 297 300" fill="none" xmlns="http://www.w3.org/2000/svg">
<path fill-rule="evenodd" clip-rule="evenodd" d="M233.112 26.7906C209.054 9.90871 179.747 0 148.125 0C90.5436 0 40.6361 32.8557 16.1272 80.8425C50.8823 106.226 84.3467 127.404 99.2586 127.404C117.614 127.404 177.315 77.4359 233.112 26.7906ZM3.50851 115.931C1.21133 126.295 0 137.069 0 148.125V151.875C0 233.682 66.3178 300 148.125 300C229.932 300 296.25 233.682 296.25 151.875V148.125C296.25 109.366 281.364 74.0847 256.997 47.6854C201.44 125.184 135.595 210.317 112.738 212.89C92.9164 215.121 46.8204 167.286 3.50851 115.931Z" fill="url(#paint0_linear_16_38)"/>
<defs>
<linearGradient id="paint0_linear_16_38" x1="75" y1="57.5" x2="270" y2="335.5" gradientUnits="userSpaceOnUse">
<stop stop-color="#DC2626"/>
<stop offset="1" stop-color="#991B1B"/>
</linearGradient>
</defs>
</svg>
